<?xml version="1.0" encoding="UTF-8" standalone="no"?>
<!-- Created with Inkscape (http://www.inkscape.org/) -->

<svg
   width="166.03687mm"
   height="166.03671mm"
   viewBox="0 0 166.03686 166.03672"
   version="1.1"
   id="svg5"
   inkscape:export-filename="/home/hugues/Bureau/image.png"
   inkscape:export-xdpi="39.162388"
   inkscape:export-ydpi="39.162388"
   inkscape:version="1.1.1 (3bf5ae0d25, 2021-09-20)"
   sodipodi:docname="remiz.svg"
   xmlns:inkscape="http://www.inkscape.org/namespaces/inkscape"
   xmlns:sodipodi="http://sodipodi.sourceforge.net/DTD/sodipodi-0.dtd"
   xmlns:xlink="http://www.w3.org/1999/xlink"
   xmlns="http://www.w3.org/2000/svg"
   xmlns:svg="http://www.w3.org/2000/svg">
  <sodipodi:namedview
     id="namedview7"
     pagecolor="#ffffff"
     bordercolor="#eeeeee"
     borderopacity="1"
     inkscape:pageshadow="0"
     inkscape:pageopacity="0"
     inkscape:pagecheckerboard="false"
     inkscape:document-units="mm"
     showgrid="false"
     fit-margin-top="0.1"
     fit-margin-right="0.1"
     fit-margin-bottom="0.1"
     fit-margin-left="0.1"
     showborder="false"
     inkscape:zoom="0.64052329"
     inkscape:cx="-138.94889"
     inkscape:cy="410.60178"
     inkscape:window-width="2552"
     inkscape:window-height="1363"
     inkscape:window-x="1920"
     inkscape:window-y="40"
     inkscape:window-maximized="0"
     inkscape:current-layer="layer1" />
  <defs
     id="defs2">
    <linearGradient
       inkscape:collect="always"
       id="degrade">
      <stop
         style="stop-color:#2bc4b8;stop-opacity:1"
         offset="0"
         id="stop6354" />
      <stop
         style="stop-color:#2baac4;stop-opacity:1"
         offset="1"
         id="stop6356" />
    </linearGradient>
    <linearGradient
       inkscape:collect="always"
       xlink:href="#degrade"
       id="linearGradient6360"
       x1="158.97337"
       y1="384.87399"
       x2="693.19598"
       y2="659.41815"
       gradientUnits="userSpaceOnUse"
       gradientTransform="matrix(0.26458333,0,0,0.26458333,-231.98215,6.2350344)" />
  </defs>
  <g
     inkscape:label="circle"
     inkscape:groupmode="layer"
     id="layer1"
     transform="translate(207.72704,-61.037624)">
    <path
       id="path846"
       style="opacity:1;fill:url(#linearGradient6360);fill-opacity:1;stroke:none;stroke-width:0.802"
       d="m -126.44727,61.158203 c -4.18281,0.09854 -8.35972,0.491896 -12.48294,1.204892 -5.86255,1.007465 -11.61328,2.659182 -17.11961,4.909298 -6.18689,2.531145 -12.06874,5.809427 -17.46506,9.755348 -3.93493,2.870131 -7.61725,6.086658 -10.99217,9.598173 -3.88601,4.049779 -7.36593,8.489963 -10.36347,13.235314 -3.19759,5.065512 -5.84365,10.478792 -7.87328,16.114902 -1.36931,3.8112 -2.45883,7.72252 -3.25338,11.69361 -0.92486,4.62723 -1.4583,9.33255 -1.58808,14.04958 -0.10264,3.82612 0.0519,7.65992 0.47931,11.46377 0.4366,3.89685 1.14742,7.76287 2.12987,11.55916 1.60264,6.19698 3.91828,12.21069 6.90741,17.87141 1.28733,2.44629 2.70104,4.82526 4.21741,7.13631 0.11008,0.18687 0.26565,0.55102 0.51923,0.30472 0.22481,-0.19932 0.50436,-0.31715 0.75021,-0.48868 4.00504,-2.48823 8.34845,-4.38868 12.79174,-5.94376 5.29016,-1.84237 10.74964,-3.16949 16.26374,-4.13898 7.16321,-1.25517 14.42498,-1.89251 21.69095,-2.10894 3.48265,-0.10137 6.96848,-0.10303 10.45114,-0.002 1.68606,0.0519 3.37145,0.12403 5.05613,0.20946 0.43637,-1.25354 0.64028,-2.57601 0.71571,-3.89774 0.0875,-0.80208 0.10296,-1.63821 -0.18189,-2.40558 -0.45057,-1.49238 -1.25674,-2.83783 -1.94984,-4.22402 -0.1736,-0.23926 -0.19732,-0.5577 -0.38281,-0.78711 -0.25479,-0.22771 -0.62043,-0.22888 -0.93177,-0.33103 -1.40399,-0.34751 -2.8374,-0.55826 -4.2445,-0.89256 -2.09386,-0.46059 -4.17612,-1.04531 -6.11178,-1.98225 -2.52045,-1.14285 -4.96644,-2.45166 -7.54048,-3.4746 -1.50059,-0.60238 -3.0526,-1.08865 -4.64926,-1.35783 -1.07915,-0.18386 -2.16883,-0.29759 -3.25268,-0.45001 -2.30752,-0.29608 -4.65888,-0.50592 -6.97246,-0.15064 -2.04512,0.3074 -4.01585,1.0066 -5.85811,1.93603 -1.55017,0.77158 -3.03536,1.66769 -4.48929,2.60632 -2.30965,1.50105 -4.48672,3.19357 -6.62562,4.92615 -0.43146,0.34237 -0.86801,0.68141 -1.33968,0.96729 -0.31804,0.11112 -0.6221,-0.14654 -0.77539,-0.40429 -0.59153,-0.8693 -0.82465,-1.93286 -1.45508,-2.7793 -0.26146,-0.23704 -0.64116,-0.11248 -0.93924,-0.0283 -2.04866,0.54907 -4.06112,1.23273 -6.13302,1.69431 -0.29903,0.024 -0.17418,-0.40557 0.057,-0.39529 1.07915,-0.78689 2.2691,-1.40087 3.41425,-2.08298 1.16614,-0.67591 2.34779,-1.33098 3.44872,-2.11158 0.67163,-0.60465 1.20638,-1.33916 1.8306,-1.98951 1.93256,-2.1506 3.90651,-4.2902 6.19878,-6.06624 1.40101,-1.02648 2.88544,-1.9408 4.21533,-3.06264 1.90391,-1.53729 3.66373,-3.24194 5.39396,-4.9695 0.31751,-0.22495 0.73045,-0.17862 1.08641,-0.29897 5.15945,-1.07775 10.3223,-2.14707 15.44144,-3.40554 3.25193,-0.79523 6.48045,-1.68754 9.67088,-2.70242 3.11423,-0.9868 6.19656,-2.07082 9.27508,-3.16299 2.56431,-0.9319 5.14258,-1.82916 7.66987,-2.85899 1.86369,-0.77167 3.71448,-1.59817 5.43624,-2.65558 1.49285,-0.93204 2.87736,-2.12286 3.75635,-3.66857 0.71621,-1.23876 1.12101,-2.63027 1.37857,-4.03014 0.15828,-0.83657 0.0204,-1.70037 -0.26652,-2.49358 -0.47803,-1.29179 -1.22536,-2.47489 -2.12094,-3.5173 -1.37271,-1.58934 -3.12489,-2.85028 -5.06778,-3.64726 -2.09237,-0.84642 -4.41924,-1.10429 -6.64487,-0.72352 -1.55,0.25242 -3.04463,0.78644 -4.44285,1.49494 1.27837,-0.23844 2.57822,-0.40221 3.88098,-0.34476 2.30508,0.0742 4.59723,0.73544 6.55678,1.95902 1.7497,1.08957 3.25339,2.61582 4.18932,4.46194 0.39525,0.81333 0.67999,1.72026 0.58957,2.63362 -0.12985,0.82968 -0.58779,1.55793 -1.04679,2.24356 -1.08344,1.52707 -2.60432,2.66881 -4.15805,3.68023 -2.26919,1.45 -4.70779,2.60651 -7.14386,3.7437 -4.12362,1.90855 -8.3521,3.58331 -12.6305,5.11084 -2.50946,0.90694 -5.0407,1.75384 -7.5944,2.52774 -5.61418,1.70975 -11.28126,3.23759 -16.94383,4.77708 1.92978,-1.92635 3.55232,-4.12862 5.1381,-6.33862 2.87123,-4.06579 5.46713,-8.31538 8.16704,-12.49455 1.90636,-2.96685 3.85601,-5.91237 6.02684,-8.69424 0.8317,-1.05514 1.71463,-2.06906 2.62163,-3.05953 2.0917,-2.65374 4.10313,-5.3783 6.39659,-7.86513 1.18419,-1.293 2.46708,-2.49496 3.83907,-3.58689 1.86963,-1.50085 3.85125,-2.85316 5.80061,-4.246557 0.9015,-0.641116 1.8053,-1.27997 2.69319,-1.93948 1.49612,-1.292107 2.9799,-2.600127 4.5374,-3.818732 1.25763,-1.00132 2.53001,-1.98635 3.85087,-2.903215 1.58233,-1.089107 3.2913,-2.011575 5.12078,-2.611123 2.44701,-0.822728 5.04695,-1.067498 7.61612,-1.072795 2.07019,0.0092 4.16245,0.256642 6.119489,0.957031 1.04114,0.379951 2.006263,0.934065 2.936003,1.531254 1.716869,1.076679 3.347747,2.371417 4.496577,4.062054 0.852656,1.250569 0.809594,1.658568 1.046726,3.14494 0.08422,0.534574 0.139464,1.073516 0.173168,1.613576 0.02462,0.209614 -0.118614,0.326579 -0.366614,0.395136 -1.893521,-0.658668 -3.232594,-1.141926 -6.415447,-1.856192 -2.794454,-0.825646 -11.664962,-1.451923 -14.376892,-1.215772 -3.03167,0.320734 -7.34516,1.31324 -7.58858,4.874958 -0.20779,3.603147 1.8084,5.402437 6.03545,6.702917 1.42499,0.2777 5.89896,0.271 10.666275,0.0555 5.834453,-0.52102 8.342634,-0.6657 11.367944,-2.55042 0.292666,0.58148 0.66765,1.14424 1.039319,1.47227 1.968014,1.83081 3.936027,3.66163 5.90404,5.49245 -2.535962,-0.4018 -5.076312,-0.84865 -7.647962,-0.92848 -0.296249,0.002 -0.591816,0.0297 -0.883288,0.0828 -0.243319,0.18049 -0.161809,0.51756 -0.197266,0.77735 -0.411124,3.04476 -0.987708,6.07137 -1.190546,9.14092 -0.113302,2.02118 -0.131478,4.04622 -0.193257,6.06937 -0.119516,4.94465 -0.423941,9.90614 -1.38785,14.76644 -0.449993,2.24207 -1.016008,4.46481 -1.772806,6.62406 -0.851412,2.41718 -1.957021,4.76629 -3.492102,6.82875 -1.506344,2.02702 -3.424571,3.74154 -5.580431,5.05294 -1.45743,0.89048 -3.04002,1.56907 -4.68267,2.03413 -2.81036,0.8197 -5.73799,1.10835 -8.57692,1.80357 -1.13102,0.28772 -2.20764,0.74947 -3.25245,1.26315 -1.22782,0.57704 -2.45564,1.15408 -3.68347,1.73112 1.03298,2.12813 2.43968,4.10156 4.26485,5.62177 1.4266,1.24184 2.80275,2.58552 3.80071,4.20568 0.35655,0.6045 0.66166,1.25192 0.80672,1.94135 0.0249,0.19814 0.0115,0.54775 0.29178,0.5437 0.29291,-0.001 0.58601,0.065 0.87899,0.0894 5.42383,0.63953 10.82754,1.44739 16.202996,2.41215 7.64852,1.36449 15.241874,3.03009 22.775414,4.92734 4.878376,1.23206 9.7331,2.55784 14.557777,3.98593 1.09121,0.31764 2.178881,0.65138 3.268422,0.97193 0.190144,0.11298 0.486144,0.14801 0.546661,-0.12403 3.505256,-5.13368 6.448764,-10.65272 8.728887,-16.4365 2.490304,-6.3048 4.203025,-12.91679 5.0845,-19.63811 1.055076,-8.00886 0.922108,-16.17148 -0.376505,-24.14394 -1.05082,-6.47781 -2.88119,-12.82853 -5.440418,-18.8715 -1.580103,-3.73304 -3.436894,-7.3483 -5.543898,-10.81123 -1.913584,-3.134009 -4.031649,-6.143245 -6.342433,-8.997211 -3.513816,-4.347581 -7.466046,-8.340805 -11.779603,-11.896509 -2.602274,-2.138382 -5.328688,-4.126276 -8.165793,-5.941818 -2.997225,-1.913344 -6.117508,-3.633337 -9.335798,-5.145505 -4.255772,-2.003013 -8.685566,-3.635081 -13.220339,-4.883101 -4.78237,-1.311026 -9.6824,-2.193144 -14.62256,-2.624576 -3.0301,-0.269218 -6.07528,-0.371172 -9.11669,-0.314102 z m 26.999494,36.64832 c 1.225643,0.05213 2.351623,0.9841 2.635826,2.176816 0.332989,1.208811 -0.17736,2.622281 -1.255293,3.284261 -0.895689,0.57758 -2.136617,0.59397 -3.021087,-0.0162 -0.95377,-0.60991 -1.4909,-1.80583 -1.30689,-2.92409 0.14228,-1.01109 0.82876,-1.949933 1.79261,-2.317973 0.3651,-0.148774 0.76143,-0.212604 1.154834,-0.202757 z M -121.3125,176.80664 c -0.57492,0.10643 -0.99958,0.54897 -1.37695,0.96289 0.27088,0.1472 0.58946,0.0504 0.87828,0.12116 1.37556,0.10954 2.74965,0.23615 4.12367,0.36322 -1.05661,-0.74294 -2.25944,-1.39677 -3.57765,-1.44824 z m -3.67969,5.50781 c -0.20011,0.1544 -0.0823,0.42349 -0.0121,0.61425 0.30646,1.13476 0.90755,2.15973 1.52377,3.14942 0.13696,0.11824 0.39659,0.53499 0.0391,0.48243 -0.49605,-0.0859 -0.94783,-0.32559 -1.40074,-0.53518 -0.71659,-0.36174 -1.44673,-0.73921 -2.02306,-1.30861 -0.4351,-0.45374 -0.74158,-1.04339 -0.81252,-1.67184 -0.0985,-0.22381 0.10069,-0.56103 -0.17188,-0.70117 -4.21647,0.0258 -8.43288,0.0587 -12.64919,0.10393 -3.63596,0.0452 -7.27196,0.11498 -10.90587,0.24733 -4.42059,0.16508 -8.84018,0.4305 -13.23753,0.92114 -5.34766,0.59712 -10.66255,1.5421 -15.85507,2.96245 -4.02215,1.08927 -7.96876,2.44716 -11.83251,4.00574 -0.20199,0.13626 -0.60378,0.12826 -0.67413,0.36097 0.0596,0.29485 0.36543,0.45227 0.47719,0.72694 0.69895,1.01772 1.44052,2.0061 2.19191,2.98563 2.6463,3.44269 5.57353,6.66736 8.72483,9.654 3.54121,3.34474 7.3736,6.3821 11.44853,9.05155 2.53079,1.6623 5.15427,3.18278 7.84988,4.56161 5.01281,2.5524 10.28444,4.59664 15.70994,6.08299 4.89206,1.34792 9.91015,2.2376 14.96654,2.66182 3.92484,0.33317 7.87328,0.37487 11.80532,0.14752 7.70193,-0.44764 15.33887,-1.98647 22.614094,-4.55355 5.861149,-2.06081 11.487505,-4.78637 16.740603,-8.10343 4.530391,-2.86226 8.786392,-6.15978 12.678544,-9.84379 3.717762,-3.51155 7.111196,-7.36732 10.116327,-11.50528 0.138972,-0.22457 0.371563,-0.39319 0.455593,-0.64921 0.0088,-0.29839 -0.394102,-0.20856 -0.583985,-0.29297 -4.910486,-1.12837 -9.825102,-2.24167 -14.764966,-3.23518 -6.440567,-1.31559 -12.909347,-2.49677 -19.406315,-3.49872 -4.12183,-0.63395 -8.255625,-1.19183 -12.401195,-1.64644 -3.74151,-0.42196 -7.49589,-0.72204 -11.2537,-0.95364 -0.29891,0.0876 -0.26228,0.47337 -0.38858,0.70357 -0.15565,0.39573 -0.30681,0.79318 -0.45712,1.19096 0.0711,-0.64161 0.12456,-1.28514 0.16016,-1.92969 -2.88818,-0.14214 -5.78024,-0.20534 -8.67188,-0.18555 z"
       sodipodi:nodetypes="cccccsccssssssscssccsccccccsscssscscccscssscsccccccccccsccscccsccccccccsccccccccccccccccccccccccccccccccccccccccccccccccccccccccccccccccccccccccccccccccccccccccccccccccccccccccccccsc" />
  </g>
</svg>
